name processed_emg_signals
nRows=82
nColumns=7
 
endheader
time	LGLTMED	LRF	LADDLONG	LST	LTA	LGM
1.96	0.2292665162434121	0.0675658442861542	0.1803247058700188	0.4131004990004525	0.4571806776007619	0.0879703771581011
1.961	0.2281093011697723	0.0668078772280173	0.1800736173021748	0.4172781176006248	0.4512272280128973	0.0868329272788
1.962	0.2269631980690858	0.0660691785353788	0.1798516342554685	0.4213864389950567	0.4452090257568669	0.0856993377381996
1.963	0.2258301113590231	0.0653502255768025	0.1796590384837348	0.4254224150982832	0.4391299309471364	0.0845719103568541
1.964	0.2247119861642706	0.0646515074362521	0.179496103372433	0.4293830380529916	0.4329938764430628	0.0834530197623281
1.965	0.2236108068265638	0.063973525451642	0.1793630942495644	0.4332653442228196	0.4268048606795649	0.0823451114974957
1.966	0.2225285953672321	0.0633167937204313	0.1792602686938292	0.4370664182051086	0.4205669405292105	0.081250700015075
1.967	0.221467409903575	0.0626818395703327	0.179187876838683	0.4407833968522552	0.4142842242109137	0.0801723665590566
1.968	0.2204293430201777	0.0620692039931391	0.1791461616712827	0.4444134732896848	0.4079608642589635	0.0791127569334476
1.969	0.2194165200968286	0.0614794420397933	0.1791353593251342	0.447953900917825	0.4016010505647702	0.078074579158956
1.97	0.2184310975941827	0.060913123174526	0.1791556993653579	0.4514019973851715	0.3952090035024524	0.0770606010181609
1.971	0.2174752612984705	0.0603708315860375	0.1792074050653395	0.4547551485192508	0.3887889671481996	0.0760736474897298
1.972	0.2165512245263602	0.05985316645346	0.1792906936731836	0.4580108122021764	0.3823452026023982	0.0751165980722328
1.973	0.2156612262908052	0.0593607421650163	0.1794057766661219	0.4611665221775541	0.3758819814227102	0.0741923839982876
1.974	0.2148075294288486	0.0588941884872178	0.1795528599909262	0.464219891775602	0.3694035791756402	0.0733039853398561
1.975	0.2139924186921956	0.0584541506828346	0.1797321442885293	0.4671686175438479	0.3629142691138569	0.0724544280059591
1.976	0.2132181988011636	0.0580412895759407	0.1799438251015565	0.4700104827711309	0.3564183159862223	0.0716467806341755
1.977	0.212487192462839	0.0576562815626667	0.1801880930637805	0.4727433608935168	0.3499199699874351	0.0708841513779158
1.978	0.2118017383532697	0.0572998185662952	0.1804651340706905	0.4753652187719862	0.3434234608538666	0.0701696845915098
1.979	0.2111641890636737	0.0569726079356298	0.1807751294308703	0.4778741198330823	0.336932992112189	0.0695065574155527
1.98	0.2105769090099553	0.0566753722857949	0.181118255997277	0.4802682270650624	0.3304527354876742	0.0688979762648076
1.981	0.2100422723045404	0.0564088492807172	0.1814946862777932	0.4825458058630829	0.3239868254793899	0.0683471732214427
1.982	0.2095626605896652	0.0561737913569852	0.1819045885239475	0.4847052267175719	0.3175393541100002	0.0678574023360917
1.983	0.2091404608308185	0.055970965388957	0.1823481267968949	0.4867449677404478	0.3111143658578856	0.067431935839422
1.984	0.2087780630694892	0.0558011522952937	0.182825461009932	0.4886636170244853	0.3047158527790948	0.0670740602668356
1.985	0.2084778581345954	0.0556651465870571	0.1833367469471672	0.4904598748318947	0.298347749825942	0.0667870724988736
1.986	0.2082422353123684	0.0555637558578282	0.1838821362581528	0.4921325556087075	0.2920139303683276	0.0665742757198024
1.987	0.2080735799750236	0.0554978002160412	0.1844617764285525	0.4936805898221262	0.2857182019231218	0.0664389752969219
1.988	0.2079742711687004	0.0554681116601327	0.1850758107261541	0.4951030256184287	0.2794643020961666	0.0663844745832077
1.989	0.2079466791617643	0.0554755333969365	0.185724378121608	0.496399030299191	0.2732558947408135	0.0664140706463132
1.99	0.2079931629545452	0.0555209191040929	0.1864076131822378	0.4975678916136615	0.267096566336161	0.066531049927186
1.991	0.2081160677524166	0.0556051321372823	0.1871256459371026	0.4986090188649287	0.2609898225873109	0.0667386838323866
1.992	0.2083177224039496	0.0557290446834051	0.1878786017111261	0.4995219438268454	0.2549390852493598	0.0670402242643627
1.993	0.2086004368061668	0.0558935368607607	0.1886666009256508	0.5003063214680531	0.248947689175807	0.0674388990945552
1.994	0.2089664992792201	0.0560994957676307	0.1894897588629066	0.5009619304786866	0.2430188795912822	0.0679379075842945
1.995	0.2094181739118059	0.0563478144805405	0.1903481853910817	0.501488673594932	0.2371558095874093	0.068540415758693
1.996	0.2099576978792089	0.0566393910037031	0.1912419846472892	0.5018865777166154	0.2313615378397538	0.0692495517389197
1.997	0.2105872787348912	0.0569751271712303	0.1921712546749028	0.5021557938134354	0.2256390265428266	0.0700684010383579
1.998	0.211309091676788	0.0573559275036625	0.1931360870127156	0.5022965966163483	0.2199911395591806	0.0710000018285233
1.999	0.2121252767886725	0.0577826980206404	0.1941365662334562	0.5023093840916041	0.2144206407778682	0.0720473401805956
2.0	0.2130379362573203	0.0582563450115222	0.1951727694298644	0.5021946766961944	0.2089301926766736	0.0732133452888593
2.001	0.214049131565851	0.0587777737659285	0.1962447656468331	0.501953116414409	0.2035223550819199	0.0745008846821085
2.0020000000000002	0.2151608806633539	0.0593478872662505	0.1973526152585669	0.5015854655757747	0.1981995841190426	0.0759127594293373
2.003	0.2163751551112119	0.0599675848442523	0.1984963692900418	0.5010926054544601	0.19296423134663	0.0774516993458842
2.004	0.2176938772068344	0.0606377608037713	0.1996760686826488	0.5004755346498577	0.1878185430662991	0.0791203582062607
2.005	0.2191189170856652	0.0613593030117423	0.2008917435044634	0.4997353672477772	0.1827646598002002	0.0809213089698851
2.0060000000000002	0.2206520898031987	0.062133091459638	0.2021434121059647	0.4988733307617677	0.177804615927617	0.0828570390260083
2.007	0.2222951524000348	0.062959996797573	0.2034310802224488	0.4978907638547906	0.172940339471464	0.0849299454644056
2.008	0.224049800953369	0.0638408788432934	0.204754740024683	0.4967891138423824	0.1681736520250702	0.0871423303786627
2.009	0.2259176676205307	0.0647765850686213	0.2061143691197728	0.4955699339802766	0.1635062688090559	0.0894963962091482
2.0100000000000002	0.2279003176802695	0.0657679490657287	0.207509929505075	0.494234880541056	0.1589397988479413	0.0919942411330708
2.011	0.2299992465783722	0.0668157889960658	0.2089413664782659	0.4927857096861867	0.1544757452558921	0.0946378545090766
2.012	0.2322158769843501	0.067920906024495	0.2104086075075888	0.4912242741410864	0.1501155056212876	0.0974291123839404
2.013	0.234551555865382	0.0690840827413163	0.2119115610663946	0.489552519682019	0.1458603724802107	0.1003697730689156
2.0140000000000002	0.2370075515837831	0.0703060815750366	0.213450115436987	0.4877724814442283	0.1417115338697838	0.1034614727934454
2.015	0.2395850510239428	0.0715876431986178	0.2150241374887618	0.4858862800612727	0.1376700739534077	0.1067057214437471
2.016	0.2422851567540504	0.0729294849323134	0.2166334714360086	0.4838961176465152	0.1337369737115516	0.1101038983939898
2.017	0.2451088842289135	0.0743322991461191	0.2182779375815444	0.4818042736298773	0.1299131116933461	0.1136572484372889
2.0180000000000002	0.2480571590399346	0.0757967516651435	0.2199573310523054	0.4796131004653744	0.1261992648258371	0.117366877823921
2.019	0.2511308142195885	0.0773234801809557	0.2216714205340622	0.477325019227339	0.1225961092790867	0.1212337504138518
2.02	0.2543305876080269	0.0789130926722421	0.2234199470124665	0.4749425151148748	0.1191042213861098	0.1252586839508856
2.021	0.2576571192897593	0.0805661658377697	0.2252026225282228	0.4724681328848833	0.1157240786174354	0.1294423464654356
2.0220000000000002	0.2611109491078083	0.0822832435445842	0.2270191289540694	0.4699044722336881	0.112456060610314	0.133785252812877
2.023	0.2646925142619582	0.0840648352942011	0.2288691168010265	0.4672541831463617	0.1093004502527607	0.1382877613539848
2.024	0.2684021469978009	0.085911414709314	0.2307522040613142	0.4645199612315401	0.1062574348225665	0.1429500707837989
2.025	0.2722400723918796	0.0878234180433395	0.2326679750955067	0.4617045430582988	0.103327107181376	0.1477722171150742
2.0260000000000002	0.276206406238891	0.089801242714908	0.2346159795710768	0.4588107015108326	0.1005094670236879	0.1527540708222608
2.027	0.2803011530456751	0.0918452458694438	0.2365957314604478	0.4558412411761123	0.097804422180482	0.1578953341520999
2.028	0.2845242041372769	0.0939557429696745	0.2386067081057301	0.4527989937792294	0.0952117899767856	0.1631955386065489
2.029	0.2888753358790634	0.0961330064170921	0.2406483493576961	0.4496868136807488	0.0927312986423402	0.1686540426040201
2.0300000000000002	0.2933542080186224	0.0983772642060738	0.2427200567958883	0.4465075734499237	0.0903625887739881	0.1742700293249089
2.031	0.2979603621504563	0.1006886986123368	0.244821193035793	0.4432641595270927	0.08810521484832	0.1800425047476882
2.032	0.3026932203055678	0.1030674449174052	0.2469510811288251	0.4399594679881471	0.0859586467827224	0.1859702958820045
2.033	0.3075520836677731	0.105513590170785	0.2491090040595305	0.4365964004229505	0.0839222715428481	0.1920520492053307
2.0340000000000003	0.3125361314180084	0.1080271719916155	0.2512942043441296	0.4331778599384827	0.081995394794358	0.1982862293094784
2.035	0.3176444197069232	0.1106081774119134	0.253505883733551	0.4297067472962383	0.0801772425967425	0.2046711177631615
2.036	0.3228758807563503	0.1132565417633105	0.2557432030237598	0.4261859571922858	0.0784669631369694	0.2112048121962732
2.037	0.3282293220895474	0.1159721476094924	0.2580052819752194	0.4226183746873767	0.076863628500692	0.2178852256113071
2.0380000000000003	0.3337034258912166	0.1187548237263544	0.260291199342959	0.4190068717932985	0.0753662364788366	0.2247100859268766
2.039	0.3392967484978204	0.1216043441320106	0.2625999930174537	0.4153543042205476	0.0739737124072607	0.2316769357580047
2.04	0.3450077200191987	0.1245204271690551	0.2649306602763148	0.4116635082907764	0.0726849110372091	0.23878313243737
2.041	0.3508346440927194	0.1275027346413562	0.2672821581456134	0.4079372980163742	0.0714986184341169	0.2460258482813899
